<svg viewBox="0 0 145 46" fill="none" xmlns="http://www.w3.org/2000/svg">
    <g clip-path="url(#clip0_160_838)">
        <!-- fill="#212B46" -->
        <path d="M30.6987 17.8241C30.0728 17.1431 29.3085 16.6137 28.4064 16.2357C27.5043 15.8585 26.4637 15.6695 25.2854 15.6695C23.8669 15.6695 22.5922 16.0054 21.4598 16.6779C20.3274 17.3505 19.4299 18.2755 18.7666 19.4538C18.104 20.6321 17.7719 21.9772 17.7719 23.4868C17.7719 24.9964 18.094 26.2672 18.739 27.4639C19.3833 28.6613 20.2861 29.6093 21.446 30.3086C22.606 31.0087 23.9687 31.3584 25.5341 31.3584C26.5655 31.3584 27.5135 31.2015 28.3788 30.8886C29.2442 30.5756 29.9902 30.1426 30.6161 29.5902C31.2419 29.0377 31.7025 28.4027 31.9971 27.6842L28.9588 26.2206C28.6275 26.773 28.1807 27.2152 27.6191 27.5465C27.0575 27.8778 26.3803 28.0438 25.5892 28.0438C24.798 28.0438 24.0421 27.8549 23.4346 27.4777C22.8271 27.1005 22.3665 26.571 22.0535 25.8893C21.8714 25.4937 21.7559 25.0614 21.7039 24.5908H32.4661C32.5212 24.3697 32.5625 24.1211 32.5901 23.8448C32.6176 23.5686 32.6314 23.2924 32.6314 23.0162C32.6314 22.004 32.4654 21.0552 32.1341 20.1715C31.8028 19.2878 31.3238 18.505 30.6979 17.8233L30.6987 17.8241ZM23.3099 19.3023C23.8715 18.9251 24.5295 18.7361 25.2847 18.7361C26.0398 18.7361 26.6933 18.9251 27.2457 19.3023C27.7981 19.6803 28.1891 20.196 28.4194 20.8494C28.5158 21.1241 28.5755 21.414 28.5992 21.7193H21.8064C21.8646 21.4393 21.9411 21.1761 22.039 20.932C22.3244 20.2235 22.7475 19.6803 23.3099 19.3023Z"
              fill="#888"/>
        <path d="M79.0928 19.1225C79.4333 18.8646 79.8985 18.7361 80.4876 18.7361C81.2428 18.7361 81.9146 18.9342 82.5037 19.3298C83.0929 19.7262 83.516 20.2549 83.7746 20.9182L86.6193 19.5647C86.1587 18.3313 85.3806 17.3734 84.2857 16.6924C83.1901 16.0115 81.9238 15.6702 80.4876 15.6702C79.4012 15.6702 78.434 15.8638 77.5871 16.2502C76.7401 16.6366 76.0767 17.1752 75.5985 17.8661C75.1195 18.5563 74.88 19.3627 74.88 20.2832C74.88 21.3329 75.2067 22.2396 75.8609 23.0039C76.5143 23.7683 77.4769 24.3345 78.747 24.7025L81.2329 25.3927C81.5642 25.4852 81.8541 25.6 82.1028 25.7377C82.3515 25.8755 82.5451 26.0323 82.6828 26.2075C82.8213 26.3827 82.8901 26.6077 82.8901 26.8839C82.8901 27.3445 82.7103 27.7125 82.3515 27.9887C81.9926 28.2649 81.4907 28.4034 80.8465 28.4034C80.0178 28.4034 79.2627 28.1647 78.5817 27.685C77.9 27.206 77.3667 26.5618 76.9795 25.7515L74.1624 27.0775C74.6046 28.3851 75.4233 29.4256 76.6207 30.1984C77.8174 30.9719 79.2259 31.3583 80.8465 31.3583C82.0064 31.3583 83.0102 31.1648 83.8572 30.7784C84.7042 30.392 85.3714 29.8533 85.8596 29.1624C86.347 28.4723 86.5918 27.6666 86.5918 26.7454C86.5918 25.6781 86.2605 24.7706 85.5971 24.0246C84.9338 23.2786 83.9766 22.7224 82.7249 22.3536L80.3216 21.6351C79.9719 21.525 79.6628 21.4048 79.3966 21.2763C79.1295 21.1478 78.9268 20.9909 78.7891 20.8065C78.6506 20.6229 78.5817 20.4018 78.5817 20.1439C78.5817 19.7208 78.7516 19.3803 79.0928 19.1217V19.1225Z"
              fill="#888"/>
        <path d="M52.276 16.0015H48.4641V31.027H52.276V16.0015Z" fill="#888"/>
        <path d="M36.3668 31.027H40.1503V19.3436H44.9293V16.0015H36.3668V31.027Z" fill="#888"/>
        <path d="M52.3035 9.42755H48.4091V13.3496H52.3035V9.42755Z" fill="#888"/>
        <path d="M6.37003 19.6749C6.96836 19.3069 7.64473 19.1225 8.39991 19.1225C9.22854 19.1225 9.96459 19.3482 10.6096 19.7989C11.2538 20.2503 11.7144 20.8532 11.9906 21.6084L15.3052 20.1723C14.9915 19.2518 14.4995 18.4599 13.8277 17.7965C13.1552 17.1339 12.3541 16.6137 11.4244 16.2357C10.4941 15.8585 9.48638 15.6695 8.39991 15.6695C6.88955 15.6695 5.53605 16.0054 4.33939 16.6779C3.14197 17.3505 2.20317 18.2801 1.52221 19.4676C0.84048 20.655 0.5 21.9948 0.5 23.4868C0.5 24.9788 0.845071 26.3177 1.53598 27.506C2.22689 28.6942 3.16569 29.633 4.35317 30.3232C5.54064 31.0133 6.88955 31.3591 8.39991 31.3591C9.50475 31.3591 10.5216 31.1656 11.452 30.7792C12.3816 30.3928 13.1827 29.8587 13.8552 29.177C14.527 28.496 15.0106 27.7317 15.3052 26.8847L11.9906 25.3935C11.7144 26.167 11.2584 26.7791 10.6234 27.2305C9.98831 27.6819 9.2469 27.9069 8.39991 27.9069C7.64473 27.9069 6.9676 27.7187 6.37003 27.3407C5.77171 26.9635 5.29733 26.4432 4.94767 25.7798C4.59801 25.1172 4.42279 24.3621 4.42279 23.5151C4.42279 22.6681 4.59724 21.8854 4.94767 21.2228C5.29733 20.5602 5.77171 20.0445 6.37003 19.6757V19.6749Z"
              fill="#888"/>
        <path d="M67.8233 16.6779C66.6259 16.0061 65.2823 15.6695 63.7903 15.6695C62.2984 15.6695 60.9732 16.0054 59.7574 16.6779C58.5424 17.3505 57.5798 18.2755 56.8713 19.4538C56.1621 20.6321 55.8078 21.9856 55.8078 23.5143C55.8078 25.043 56.1666 26.3453 56.8851 27.5335C57.6035 28.721 58.5653 29.656 59.7711 30.3369C60.977 31.0187 62.3167 31.3591 63.7903 31.3591C65.264 31.3591 66.6029 31.0187 67.8095 30.3369C69.0154 29.656 69.9779 28.7256 70.6956 27.5473C71.414 26.369 71.7729 25.0247 71.7729 23.5143C71.7729 22.004 71.414 20.6329 70.6956 19.4538C69.9771 18.2755 69.02 17.3505 67.8233 16.6779ZM67.3122 25.7791C66.971 26.4417 66.4974 26.9627 65.8898 27.3399C65.2823 27.7179 64.5822 27.9061 63.7903 27.9061C62.9984 27.9061 62.2991 27.7179 61.6908 27.3399C61.0833 26.9627 60.6044 26.4424 60.2547 25.7791C59.905 25.1165 59.7298 24.3613 59.7298 23.5143C59.7298 22.6673 59.9043 21.8892 60.2547 21.2358C60.6044 20.5824 61.0833 20.0667 61.6908 19.6887C62.2984 19.3115 62.9984 19.1225 63.7903 19.1225C64.5822 19.1225 65.2816 19.3115 65.8898 19.6887C66.4974 20.0667 66.9717 20.5824 67.3122 21.2358C67.6527 21.89 67.8233 22.649 67.8233 23.5143C67.8233 24.3797 67.6527 25.1165 67.3122 25.7791Z"
              fill="#888"/>
        <path d="M138.408 17.5761L138.585 17.42C140.524 15.7176 141.189 13.0573 140.279 10.6425C139.369 8.22781 137.114 6.66772 134.534 6.66772H125.267L125.221 6.43971C124.716 3.90944 122.745 2.00352 120.199 1.58423C117.654 1.16494 115.175 2.33788 113.885 4.57204L109.253 12.5944L109.033 12.5194C106.589 11.6915 103.952 12.4459 102.317 14.4414C100.681 16.4368 100.457 19.1691 101.747 21.404L106.378 29.4263L106.203 29.5801C104.264 31.2825 103.599 33.9429 104.509 36.3576C105.418 38.7723 107.673 40.3324 110.254 40.3324H119.517L119.563 40.5604C120.068 43.0907 122.04 44.9966 124.586 45.4159C124.928 45.4725 125.27 45.5001 125.609 45.5001C127.778 45.5001 129.785 44.3616 130.901 42.4281L135.529 34.4127L135.759 34.4907C136.417 34.7133 137.089 34.822 137.753 34.822C139.551 34.822 141.28 34.0263 142.475 32.5687C144.111 30.5733 144.335 27.841 143.044 25.6061L138.408 17.5769L138.408 17.5761ZM134.534 9.95775C135.987 9.95775 136.864 10.9103 137.2 11.8025C137.536 12.6946 137.506 13.9884 136.414 14.9479L135.691 15.5829H129.5C128.075 15.5829 126.837 14.5684 126.558 13.1705L125.917 9.95852H134.534L134.534 9.95775ZM116.733 6.21706C117.46 4.95843 118.723 4.67533 119.664 4.83065C120.604 4.98521 121.71 5.65852 121.994 7.08394L122.182 8.02734L119.087 13.3893C118.374 14.6242 116.876 15.1881 115.526 14.7306L112.423 13.6801L116.732 6.21706H116.733ZM104.595 19.759C103.868 18.5004 104.255 17.2647 104.86 16.5279C105.319 15.9678 106.086 15.4751 107.031 15.4751C107.329 15.4751 107.646 15.524 107.976 15.6365L108.888 15.9448L111.983 21.3068C112.696 22.5417 112.436 24.1202 111.365 25.0613L108.904 27.2228L104.595 19.759ZM110.254 37.0416C108.8 37.0416 107.923 36.089 107.588 35.1969C107.252 34.3048 107.282 33.0109 108.373 32.0515L109.096 31.4164H115.288C116.713 31.4164 117.95 32.431 118.23 33.8289L118.871 37.0409H110.253L110.254 37.0416ZM121.456 33.1854C120.871 30.2542 118.277 28.1264 115.288 28.1264H112.859L113.536 27.5319C115.782 25.5594 116.328 22.2495 114.833 19.6603L113.619 17.557L114.472 17.8462C115.132 18.0696 115.809 18.1767 116.478 18.1767C118.678 18.1767 120.791 17.0183 121.937 15.0336L123.155 12.9249L123.332 13.8132C123.918 16.7444 126.511 18.8722 129.501 18.8722H131.941L131.254 19.4767C129.008 21.4492 128.462 24.7591 129.957 27.3483L131.166 29.4416L130.313 29.1524C127.482 28.1937 124.342 29.3766 122.847 31.965L121.633 34.0683L121.456 33.1854ZM128.05 40.7823C127.323 42.0409 126.06 42.324 125.12 42.1687C124.179 42.0142 123.073 41.3408 122.789 39.9154L122.601 38.972L125.697 33.61C126.41 32.3751 127.907 31.8112 129.257 32.2688L132.36 33.3193L128.052 40.7823H128.05ZM139.929 30.4814C139.325 31.2183 138.189 31.8395 136.812 31.3736L135.901 31.0652L132.805 25.7032C132.092 24.4683 132.352 22.8899 133.424 21.9488L135.885 19.7873L140.193 27.2503C140.92 28.5089 140.534 29.7446 139.929 30.4814Z"
              fill="#888"/>
        <path d="M90.8842 15.8547C90.937 15.7606 90.9637 15.6565 90.9637 15.541C90.9637 15.3527 90.9025 15.2074 90.7816 15.1041C90.66 15.0008 90.5047 14.9495 90.3164 14.9495H89.6003V16.8088H89.9515V16.1339H90.2889L90.6676 16.8088H91.067L90.6332 16.072C90.748 16.0215 90.8314 15.9495 90.8842 15.8554V15.8547ZM90.533 15.7414C90.4802 15.7965 90.4075 15.8241 90.3164 15.8241H89.9515V15.2663H90.3164C90.4083 15.2663 90.4802 15.2915 90.533 15.342C90.5858 15.3925 90.6125 15.4591 90.6125 15.5417C90.6125 15.6198 90.5858 15.6863 90.533 15.7414Z"
              fill="#888"/>
        <path d="M91.4863 14.6396C91.3256 14.4789 91.1389 14.3526 90.9255 14.2608C90.712 14.169 90.4832 14.1231 90.2399 14.1231C89.914 14.1231 89.6163 14.2027 89.3485 14.3611C89.08 14.5194 88.8665 14.7321 88.7081 14.9984C88.5498 15.2647 88.4709 15.5608 88.4709 15.8867C88.4709 16.2127 88.5505 16.5034 88.7081 16.772C88.8665 17.0405 89.08 17.254 89.3485 17.4124C89.6171 17.5708 89.914 17.6496 90.2399 17.6496C90.5659 17.6496 90.862 17.5708 91.1282 17.4124C91.3945 17.254 91.6064 17.0405 91.7648 16.772C91.9232 16.5034 92.002 16.2088 92.002 15.8867C92.002 15.6434 91.9561 15.4146 91.8643 15.2012C91.7725 14.9877 91.6462 14.801 91.4855 14.6403L91.4863 14.6396ZM91.4626 16.6021C91.3363 16.8179 91.1665 16.9877 90.953 17.1117C90.7395 17.2356 90.5016 17.2976 90.2399 17.2976C89.9782 17.2976 89.7342 17.2349 89.5207 17.1086C89.3072 16.9824 89.1374 16.8125 89.0111 16.5991C88.8849 16.3856 88.8214 16.1476 88.8214 15.886C88.8214 15.6243 88.8841 15.3871 89.0111 15.1736C89.1374 14.9602 89.3072 14.7903 89.5207 14.6641C89.7342 14.5378 89.9737 14.4743 90.2399 14.4743C90.5062 14.4743 90.7395 14.5378 90.953 14.6641C91.1665 14.7903 91.3363 14.9602 91.4626 15.1736C91.5888 15.3871 91.6523 15.6243 91.6523 15.886C91.6523 16.1476 91.5888 16.3863 91.4626 16.6021Z"
              fill="#888"/>
    </g>
    <defs>
        <clipPath id="clip0_160_838">
            <rect width="144.001" height="45" fill="white" transform="translate(0.5 0.699982)"/>
        </clipPath>
    </defs>
</svg>