<svg xmlns="http://www.w3.org/2000/svg" viewBox="0 0 625 227" id="CVtool">
  <g transform="translate(0,227) scale(0.100000,-0.100000)" fill="#F29100" stroke="none">
    <path d="M975 1654 c-202 -40 -360 -184 -419 -383 -21 -72 -21 -243 0 -325 37 -142 132 -261 258 -320 102 -49 164 -61 301 -61 126 1 232 23 314 64 l37 19 -13 104 c-7 57 -12 110 -13 119 0 15 -10 13 -72 -11 -99 -38 -185 -54 -266 -48 -176 13 -276 125 -276 308 1 125 60 225 164 274 38 18 63 21 155 21 93 -1 122 -5 189 -28 43 -15 80 -26 81 -25 1 2 10 48 20 103 10 55 20 105 22 111 7 18 -106 62 -201 79 -106 18 -187 18 -281 -1z"/>
    <path d="M1580 1642 c0 -5 88 -244 195 -532 107 -287 195 -525 195 -527 0 -2 66 -2 146 -1 l146 3 198 530 198 530 -146 3 c-80 1 -149 -1 -153 -5 -3 -5 -58 -173 -120 -375 -62 -203 -116 -368 -119 -368 -3 0 -57 168 -120 373 l-115 372 -153 3 c-83 1 -152 -1 -152 -6z"/>
    <path d="M2800 1405 l0 -95 -60 0 -60 0 0 -100 0 -100 60 0 60 0 0 -265 0 -265 125 0 125 0 0 265 0 265 75 0 75 0 0 100 0 100 -75 0 -75 0 0 95 0 95 -125 0 -125 0 0 -95z"/>
    <path d="M3563 1315 c-198 -54 -315 -232 -282 -433 32 -204 211 -337 429 -318 223 19 375 197 357 418 -20 239 -261 398 -504 333z m188 -238 c123 -82 69 -287 -75 -287 -89 0 -150 63 -150 155 0 32 7 63 19 84 41 69 140 92 206 48z"/>
    <path d="M4483 1320 c-114 -24 -220 -110 -271 -218 -24 -50 -27 -69 -27 -157 0 -87 3 -107 27 -157 115 -245 460 -305 652 -112 71 71 100 141 104 251 6 141 -38 244 -135 318 -88 67 -238 99 -350 75z m167 -239 c100 -53 100 -219 0 -272 -104 -56 -220 16 -220 136 0 120 116 192 220 136z"/>
    <path d="M5120 1150 l0 -570 125 0 125 0 0 570 0 570 -125 0 -125 0 0 -570z"/>
  </g>
</svg>