<svg viewBox="0 0 145 46" xmlns="http://www.w3.org/2000/svg" id="Laag_1" overflow="hidden"><defs><clipPath id="clippath"><rect x="0.5" y="0.7" width="144" height="45" fill="none"/></clipPath></defs><g clip-path="url(#clippath)"><g><path d="M30.7 17.8C30.1 17.1 29.3 16.6 28.4 16.2 27.5 15.8 26.5 15.6 25.3 15.6 24.1 15.6 22.6 15.9 21.5 16.6 20.4 17.3 19.5 18.2 18.8 19.4 18.1 20.6 17.8 21.9 17.8 23.4 17.8 24.9 18.1 26.2 18.8 27.4 19.4 28.6 20.3 29.5 21.5 30.2 22.7 30.9 24 31.2 25.6 31.2 27.2 31.2 27.6 31 28.4 30.7 29.3 30.4 30 30 30.6 29.4 31.2 28.8 31.7 28.2 32 27.5L29 26C28.7 26.6 28.2 27 27.7 27.3 27.1 27.6 26.5 27.8 25.7 27.8 24.9 27.8 24.2 27.6 23.5 27.2 22.9 26.8 22.4 26.3 22.1 25.6 21.9 25.2 21.8 24.8 21.8 24.3L32.6 24.3C32.6 24.1 32.6 23.8 32.7 23.6 32.7 23.3 32.7 23 32.7 22.8 32.7 21.8 32.5 20.8 32.2 20 31.9 19.1 31.4 18.3 30.8 17.7L30.8 17.7ZM23.3 19.3C23.9 18.9 24.5 18.7 25.3 18.7 26.1 18.7 26.7 18.9 27.3 19.3 27.9 19.7 28.2 20.2 28.5 20.8 28.5 21.1 28.7 21.4 28.7 21.7L21.9 21.7C21.9 21.4 22 21.2 22.1 20.9 22.4 20.2 22.8 19.6 23.4 19.3Z" fill="#FAFAFA"/><path d="M79.1 19.1C79.4 18.8 79.9 18.7 80.5 18.7 81.1 18.7 81.9 18.9 82.5 19.3 83.1 19.7 83.5 20.2 83.8 20.9L86.6 19.5C86.1 18.3 85.4 17.3 84.3 16.6 83.2 15.9 81.9 15.6 80.5 15.6 79.1 15.6 78.4 15.8 77.6 16.2 76.8 16.6 76.1 17.1 75.6 17.8 75.1 18.5 74.9 19.3 74.9 20.2 74.9 21.1 75.2 22.2 75.9 22.9 76.6 23.7 77.5 24.2 78.8 24.6L81.3 25.3C81.6 25.3 81.9 25.5 82.2 25.6 82.4 25.7 82.6 25.9 82.8 26.1 82.9 26.3 83 26.5 83 26.8 83 27.3 82.8 27.6 82.5 27.9 82.1 28.2 81.6 28.3 81 28.3 80.4 28.3 79.4 28.1 78.7 27.6 78 27.1 77.5 26.5 77.1 25.7L74.3 27C74.7 28.3 75.6 29.3 76.8 30.1 78 30.9 79.4 31.3 81 31.3 82.6 31.3 83.2 31.1 84 30.7 84.8 30.3 85.5 29.8 86 29.1 86.5 28.4 86.7 27.6 86.7 26.7 86.7 25.8 86.4 24.7 85.7 24 85 23.3 84.1 22.7 82.8 22.3L80.4 21.6C80.1 21.5 79.7 21.4 79.5 21.2 79.2 21.1 79 20.9 78.9 20.7 78.8 20.5 78.7 20.3 78.7 20 78.7 19.6 78.9 19.2 79.2 19L79.2 19Z" fill="#FAFAFA"/><path d="M52.3 16 48.5 16 48.5 31 52.3 31 52.3 16Z" fill="#FAFAFA"/><path d="M36.4 31 40.2 31 40.2 19.3 45 19.3 45 16 36.4 16 36.4 31Z" fill="#FAFAFA"/><path d="M52.3 9.4 48.4 9.4 48.4 13.3 52.3 13.3 52.3 9.4Z" fill="#FAFAFA"/><path d="M6.4 19.7C7 19.3 7.7 19.1 8.4 19.1 9.1 19.1 10 19.3 10.6 19.8 11.2 20.3 11.7 20.9 12 21.6L15.3 20.2C15 19.3 14.5 18.5 13.8 17.8 13.1 17.1 12.3 16.6 11.4 16.2 10.5 15.8 9.5 15.6 8.4 15.6 7.3 15.6 5.5 15.9 4.3 16.6 3.1 17.3 2.2 18.2 1.5 19.4 0.8 20.6 0.5 21.9 0.5 23.4 0.5 24.9 0.8 26.2 1.5 27.4 2.2 28.6 3.1 29.5 4.3 30.2 5.5 30.9 6.8 31.2 8.3 31.2 9.8 31.2 10.4 31 11.4 30.6 12.3 30.2 13.1 29.7 13.8 29 14.5 28.3 15 27.6 15.2 26.7L11.9 25.2C11.6 26 11.2 26.6 10.5 27 9.9 27.5 9.1 27.7 8.3 27.7 7.5 27.7 6.9 27.5 6.3 27.1 5.7 26.7 5.2 26.2 4.9 25.5 4.6 24.8 4.4 24.1 4.4 23.2 4.4 22.3 4.6 21.6 4.9 20.9 5.2 20.2 5.7 19.7 6.3 19.4L6.3 19.4Z" fill="#FAFAFA"/><path d="M67.8 16.7C66.6 16 65.3 15.7 63.8 15.7 62.3 15.7 61 16 59.8 16.7 58.6 17.4 57.6 18.3 56.9 19.5 56.2 20.7 55.8 22 55.8 23.6 55.8 25.2 56.2 26.4 56.9 27.6 57.6 28.8 58.6 29.7 59.8 30.4 61 31.1 62.3 31.4 63.8 31.4 65.3 31.4 66.6 31.1 67.8 30.4 69 29.7 70 28.8 70.7 27.6 71.4 26.4 71.8 25.1 71.8 23.6 71.8 22.1 71.4 20.7 70.7 19.5 70 18.3 69 17.4 67.8 16.7ZM67.3 25.8C67 26.5 66.5 27 65.9 27.4 65.3 27.8 64.6 28 63.8 28 63 28 62.3 27.8 61.7 27.4 61.1 27 60.6 26.5 60.3 25.8 60 25.1 59.8 24.4 59.8 23.5 59.8 22.6 60 21.9 60.3 21.2 60.6 20.5 61.1 20 61.7 19.7 62.3 19.3 63 19.1 63.8 19.1 64.6 19.1 65.3 19.3 65.9 19.7 66.5 20.1 67 20.6 67.3 21.2 67.6 21.9 67.8 22.6 67.8 23.5 67.8 24.4 67.6 25.1 67.3 25.8Z" fill="#FAFAFA"/><path d="M138.4 17.6 138.6 17.4C140.5 15.7 141.2 13 140.3 10.6 139.4 8.2 137.1 6.6 134.6 6.6L125.3 6.6 125.3 6.4C124.7 3.9 122.8 2 120.2 1.5 117.7 1.1 115.2 2.3 113.9 4.5L109.3 12.5 109.1 12.5C106.7 11.6 104 12.4 102.4 14.3 100.8 16.3 100.5 19 101.8 21.3L106.4 29.3 106.2 29.5C104.3 31.2 103.6 33.9 104.5 36.3 105.4 38.7 107.7 40.3 110.2 40.3L119.5 40.3 119.5 40.5C120.1 43 122 44.9 124.6 45.4 124.9 45.4 125.3 45.4 125.6 45.4 127.8 45.4 129.8 44.3 130.9 42.3L135.5 34.3 135.7 34.3C136.4 34.6 137 34.7 137.7 34.7 139.5 34.7 141.2 33.9 142.4 32.4 144 30.4 144.3 27.7 143 25.4L138.4 17.4 138.4 17.4ZM134.5 10C136 10 136.8 11 137.2 11.8 137.5 12.7 137.5 14 136.4 14.9L135.7 15.5 129.5 15.5C128.1 15.5 126.8 14.5 126.6 13.1L126 9.9 134.6 9.9ZM116.7 6.2C117.4 4.9 118.7 4.7 119.6 4.8 120.5 5 121.6 5.6 121.9 7.1L122.1 8 119 13.4C118.3 14.6 116.8 15.2 115.4 14.7L112.3 13.6 116.6 6.1 116.6 6.1ZM104.6 19.8C103.9 18.5 104.3 17.3 104.9 16.6 105.4 16 106.1 15.5 107.1 15.5 108.1 15.5 107.7 15.5 108 15.7L108.9 16 112 21.4C112.7 22.6 112.5 24.2 111.4 25.2L108.9 27.4 104.6 19.9ZM110.3 37C108.8 37 108 36 107.6 35.2 107.3 34.3 107.3 33 108.4 32.1L109.1 31.5 115.3 31.5C116.7 31.5 118 32.5 118.2 33.9L118.8 37.1 110.2 37.1 110.2 37.1ZM121.5 33.2C120.9 30.3 118.3 28.1 115.3 28.1L112.9 28.1 113.6 27.5C115.8 25.5 116.4 22.2 114.9 19.6L113.7 17.5 114.6 17.8C115.3 18 115.9 18.1 116.6 18.1 118.8 18.1 120.9 16.9 122.1 15L123.3 12.9 123.5 13.8C124.1 16.7 126.7 18.9 129.7 18.9L132.1 18.9 131.4 19.5C129.2 21.5 128.6 24.8 130.1 27.4L131.3 29.5 130.4 29.2C127.6 28.2 124.4 29.4 122.9 32L121.7 34.1 121.5 33.2ZM128.1 40.8C127.4 42.1 126.1 42.3 125.2 42.2 124.3 42 123.2 41.4 122.9 39.9L122.7 39 125.8 33.6C126.5 32.4 128 31.8 129.4 32.3L132.5 33.4 128.2 40.9 128.2 40.9ZM139.9 30.5C139.3 31.2 138.2 31.9 136.8 31.4L135.9 31.1 132.8 25.7C132.1 24.5 132.3 22.9 133.4 21.9L135.9 19.7 140.2 27.2C140.9 28.5 140.5 29.7 139.9 30.4Z" fill="#FAFAFA"/><path d="M90.9 15.9C90.9 15.9 90.9 15.7 90.9 15.6 90.9 15.4 90.9 15.3 90.7 15.2 90.6 15.1 90.4 15 90.2 15L89.5 15 89.5 16.9 89.9 16.9 89.9 16.2 90.2 16.2 90.6 16.9 91 16.9 90.6 16.2C90.7 16.2 90.8 16.1 90.9 16L90.9 16ZM90.5 15.7C90.5 15.7 90.4 15.7 90.3 15.7L89.9 15.7 89.9 15.1 90.3 15.1C90.3 15.1 90.5 15.1 90.5 15.1 90.5 15.1 90.5 15.2 90.5 15.3 90.5 15.4 90.5 15.4 90.5 15.5Z" fill="#FAFAFA"/><path d="M91.5 14.6C91.3 14.4 91.2 14.3 90.9 14.2 90.7 14.2 90.5 14.1 90.2 14.1 89.9 14.1 89.6 14.1 89.3 14.3 89 14.5 88.8 14.7 88.7 14.9 88.5 15.2 88.5 15.5 88.5 15.8 88.5 16.1 88.5 16.4 88.7 16.7 88.9 17 89.1 17.2 89.3 17.3 89.6 17.5 89.9 17.5 90.2 17.5 90.5 17.5 90.8 17.5 91.1 17.3 91.4 17.1 91.6 16.9 91.7 16.7 91.9 16.4 91.9 16.1 91.9 15.8 91.9 15.5 91.9 15.3 91.8 15.1 91.8 14.9 91.6 14.7 91.4 14.5L91.4 14.5ZM91.5 16.6C91.4 16.8 91.2 17 91 17.1 90.8 17.2 90.5 17.3 90.3 17.3 90.1 17.3 89.8 17.3 89.6 17.1 89.4 17 89.2 16.8 89.1 16.6 89 16.4 88.9 16.1 88.9 15.9 88.9 15.7 88.9 15.4 89.1 15.2 89.2 15 89.4 14.8 89.6 14.7 89.8 14.6 90.1 14.5 90.3 14.5 90.5 14.5 90.8 14.5 91 14.7 91.2 14.8 91.4 15 91.5 15.2 91.6 15.4 91.7 15.7 91.7 15.9 91.7 16.1 91.7 16.4 91.5 16.6Z" fill="#FAFAFA"/></g></g></svg>