<svg xmlns="http://www.w3.org/2000/svg" viewBox="0 0 60 60" id="logo">
  <g fill="none" fill-rule="evenodd">
    <path fill="#211A58" d="M59.193 59.193H.206V.385h58.987v58.808"/>
    <path fill="#F29100" d="M23.335 22.797a6.428 6.428 0 0 1 6.454-6.455 6.428 6.428 0 0 1 6.455 6.455 6.428 6.428 0 0 1-6.455 6.454 6.428 6.428 0 0 1-6.454-6.454zm-1.435 0c0 4.303 3.407 7.71 7.71 7.71s7.71-3.407 7.71-7.71-3.407-7.71-7.71-7.71c-4.124 0-7.71 3.407-7.71 7.71z"/>
    <path fill="#F29100" d="M25.845 22.797c0-2.152 1.793-3.765 3.765-3.765 2.152 0 3.765 1.793 3.765 3.765 0 2.151-1.793 3.765-3.765 3.765-1.972.18-3.765-1.614-3.765-3.765zm-1.255 0c0 2.869 2.33 5.2 5.2 5.2 2.868 0 5.199-2.331 5.199-5.2s-2.331-5.2-5.2-5.2c-2.868 0-5.2 2.331-5.2 5.2z"/>
    <path fill="#F29100" d="M31.044 22.797c0 .717-.538 1.255-1.255 1.255a1.226 1.226 0 0 1-1.255-1.255c0-.717.538-1.255 1.255-1.255.717 0 1.255.538 1.255 1.255"/>
    <path fill="#FFFFFF" d="M13.294 44.491H12.04l-2.33-6.275h1.434l1.255 3.586c.18.358.18.896.359 1.076 0-.18.179-.718.358-1.076l1.255-3.586h1.435l-2.51 6.275"/>
    <path fill="#FFFFFF" d="M20.108 40.726c-.18-.358-.18-.717-.359-.896 0 .179-.18.538-.359.896l-.358 1.076h1.434l-.358-1.076zm1.434 3.765l-.538-1.434h-2.33l-.539 1.434h-1.434l2.51-6.275h1.255l2.331 6.275h-1.255z"/>
    <path fill="#FFFFFF" d="M25.486 44.491v-6.275h1.255v5.02h3.228v1.255h-4.483"/>
    <path fill="#FFFFFF" d="M34.81 39.471c-1.076 0-1.435.897-1.435 1.972 0 1.076.359 1.973 1.435 1.973 1.075 0 1.434-.897 1.434-1.973 0-1.255-.359-1.972-1.434-1.972zm0 5.2c-1.793 0-2.69-1.255-2.69-3.228 0-1.972 1.076-3.227 2.69-3.227 1.792 0 2.689 1.255 2.689 3.227 0 1.793-.897 3.228-2.69 3.228zM43.236 39.471h-1.613v1.614h1.613c.538 0 .897-.18.897-.897 0-.538-.359-.717-.897-.717zm.717 5.02l-1.075-2.33h-1.255v2.33h-1.255v-6.275h3.048c1.255 0 2.151.717 2.151 1.972 0 .897-.359 1.614-1.255 1.793l1.255 2.51h-1.614z"/>
    <path fill="#FFFFFF" d="M48.436 44.491v-6.275h1.255v6.275h-1.255"/>
  </g>
</svg>